#!OML:ASF F:\VICON\USERDATA\INSTALL\rory3\rory3.ASF
:FULLY-SPECIFIED
:DEGREES
573
root -0.353519 17.9398 5.67802 174.582 182.832 -180.538
lowerback 21.5187 0.807579 0.685056
upperback 1.8225 1.83109 5.61858
thorax -10.2497 0.98173 5.30387
lowerneck -14.5885 -0.275135 -3.40328
upperneck 18.4023 1.40307 -4.71908
head 8.15028 -0.0507918 -0.852364
rclavicle 5.1684e-015 6.36111e-015
rhumerus -25.0747 -29.7467 -64.4104
rradius 27.072
rwrist 7.55989
rhand -13.9371 1.39212
rfingers 7.12502
rthumb 12.1898 -28.2327
lclavicle 5.1684e-015 6.36111e-015
lhumerus -44.0188 4.74119 88.8959
lradius 54.3703
lwrist -3.63657
lhand -8.87754 42.4124
lfingers 7.12502
lthumb 17.0643 71.683
rfemur -9.61111 3.52933 22.6822
rtibia 36.4967
rfoot -16.7275 -1.68334
rtoes 20.888
lfemur -12.3117 -5.25275 -18.2239
ltibia 47.6918
lfoot -15.8487 0.804356
ltoes -18.9464
574
root -0.330657 17.9402 5.69246 174.62 182.699 -180.337
lowerback 21.3045 0.764081 0.451582
upperback 2.03731 1.69906 5.62944
thorax -9.88603 0.922763 5.48239
lowerneck -15.1618 -0.247591 -3.49697
upperneck 18.2024 1.46473 -4.61888
head 8.18543 -0.0202806 -0.796925
rclavicle 2.38542e-015 -1.11319e-014
rhumerus -25.7975 -30.0015 -64.2076
rradius 28.1958
rwrist 5.20965
rhand -15.0292 1.16042
rfingers 7.12502
rthumb 11.1366 -28.5241
lclavicle 2.38542e-015 -1.11319e-014
lhumerus -43.8995 5.01612 88.78
lradius 54.62
lwrist -3.00626
lhand -9.0851 42.706
lfingers 7.12502
lthumb 16.8645 71.9937
rfemur -9.63237 3.58915 22.3752
rtibia 36.5659
rfoot -16.7161 -1.88951
rtoes 19.9426
lfemur -12.1707 -5.88371 -18.5263
ltibia 46.6003
lfoot -16.2257 0.890198
ltoes -18.7425
575
root -0.309477 17.9408 5.70106 174.701 182.632 -180.59
lowerback 21.1955 0.690793 0.7516
upperback 2.15767 1.66708 5.68489
thorax -9.68227 0.892096 5.37463
lowerneck -15.7183 -0.173617 -3.53872
upperneck 18.1885 1.56118 -4.39119
head 8.27805 0.0385422 -0.704153
rclavicle 1.78906e-015 3.49861e-014
rhumerus -26.7705 -29.9609 -64.0604
rradius 29.686
rwrist 3.14472
rhand -16.0124 1.14071
rfingers 7.12502
rthumb 10.1882 -28.5926
lclavicle 1.78906e-015 3.49861e-014
lhumerus -43.6642 5.10133 88.5778
lradius 54.2481
lwrist -2.29025
lhand -9.36935 42.6857
lfingers 7.12502
lthumb 16.5909 71.9965
rfemur -9.75691 3.75276 22.6208
rtibia 36.6256
rfoot -16.6296 -2.2925
rtoes 18.897
lfemur -12.0755 -6.39859 -18.2855
ltibia 45.4222
lfoot -16.4505 0.854784
ltoes -18.6234
576
root -0.287637 17.9429 5.7067 174.74 182.609 -180.736
lowerback 21.1993 0.672949 0.842343
upperback 2.1684 1.67399 5.77796
thorax -9.67392 0.893777 5.42457
lowerneck -16.0054 -0.0932671 -3.47616
upperneck 18.2204 1.68862 -4.45606
head 8.34226 0.0915598 -0.722057
rclavicle -1.90833e-014 -3.18055e-015
rhumerus -28.0154 -29.4801 -63.747
rradius 31.4831
rwrist 1.29705
rhand -16.6186 0.586104
rfingers 7.12502
rthumb 9.60333 -29.175
lclavicle -1.90833e-014 -3.18055e-015
lhumerus -43.8408 5.34468 88.3948
lradius 54.1031
lwrist -1.80985
lhand -9.21224 43.1628
lfingers 7.12502
lthumb 16.7421 72.4609
rfemur -9.94252 3.94922 22.7448
rtibia 36.7409
rfoot -16.5741 -2.68727
rtoes 18.4136
lfemur -11.8743 -6.7803 -18.1708
ltibia 44.1142
lfoot -16.4249 0.896591
ltoes -19.7833
577
root -0.25781 17.9482 5.72684 174.839 182.491 -180.421
lowerback 20.8286 0.645531 0.543763
upperback 2.16677 1.55251 5.75768
thorax -9.46896 0.845736 5.60478
lowerneck -15.8977 -0.0126607 -3.40032
upperneck 18.1223 1.80118 -4.60793
head 8.29323 0.138698 -0.771412
rclavicle 3.97569e-016 -2.22639e-014
rhumerus -29.2172 -29.3405 -63.2822
rradius 33.0496
rwrist 0.206772
rhand -17.1196 0.537128
rfingers 7.12502
rthumb 9.11993 -29.2457
lclavicle 3.97569e-016 -2.22639e-014
lhumerus -44.3286 5.61339 88.2053
lradius 54.3965
lwrist -1.17523
lhand -9.02096 44.1535
lfingers 7.12502
lthumb 16.9263 73.436
rfemur -10.1017 3.87757 22.2616
rtibia 36.8694
rfoot -16.6208 -2.73932
rtoes 17.9908
lfemur -11.6317 -7.27092 -18.6587
ltibia 42.738
lfoot -16.3229 0.971152
ltoes -21.017
578
root -0.224296 17.9441 5.74556 174.789 182.277 -180.151
lowerback 20.6004 0.552161 0.371116
upperback 2.26874 1.36761 5.67227
thorax -9.21407 0.757649 5.6551
lowerneck -16.0736 0.0984044 -3.12408
upperneck 18.0942 1.91759 -4.72364
head 8.31883 0.19922 -0.841979
rclavicle -5.36719e-015 -2.22639e-014
rhumerus -30.708 -26.9402 -63.7628
rradius 36.2921
rwrist -3.14669
rhand -17.8384 0.647343
rfingers 7.12502
rthumb 8.42629 -29.1646
lclavicle -5.36719e-015 -2.22639e-014
lhumerus -44.5413 5.92452 87.8177
lradius 54.4564
lwrist -0.51381
lhand -8.66202 44.8423
lfingers 7.12502
lthumb 17.2718 74.0948
rfemur -10.0221 3.75124 21.81
rtibia 36.9933
rfoot -16.822 -2.70372
rtoes 18.1311
lfemur -11.1907 -7.80845 -19.1323
ltibia 41.3491
lfoot -16.0158 0.865421
ltoes -21.5087
